<svg width="14" height="12" viewBox="0 0 14 12" fill="none" xmlns="http://www.w3.org/2000/svg">
<path d="M12.8333 5.16666H2.94998L5.97498 1.53333C6.11643 1.36315 6.18448 1.14375 6.16416 0.923393C6.14385 0.703037 6.03683 0.499778 5.86665 0.358329C5.69647 0.21688 5.47707 0.148829 5.25671 0.169145C5.03635 0.189462 4.83309 0.296482 4.69165 0.466663L0.52498 5.46666C0.496947 5.50643 0.471879 5.54821 0.44998 5.59166C0.44998 5.63333 0.44998 5.65833 0.391646 5.7C0.353874 5.79554 0.334097 5.89725 0.333313 6C0.334097 6.10274 0.353874 6.20445 0.391646 6.3C0.391646 6.34166 0.391646 6.36666 0.44998 6.40833C0.471879 6.45178 0.496947 6.49356 0.52498 6.53333L4.69165 11.5333C4.77 11.6274 4.86811 11.703 4.97902 11.7549C5.08992 11.8067 5.21089 11.8335 5.33331 11.8333C5.52802 11.8337 5.71672 11.7659 5.86665 11.6417C5.95103 11.5717 6.02078 11.4858 6.07191 11.3888C6.12303 11.2919 6.15453 11.1858 6.16459 11.0766C6.17466 10.9675 6.16309 10.8574 6.13055 10.7528C6.09801 10.6481 6.04515 10.5509 5.97498 10.4667L2.94998 6.83333H12.8333C13.0543 6.83333 13.2663 6.74553 13.4226 6.58925C13.5788 6.43297 13.6666 6.22101 13.6666 6C13.6666 5.77898 13.5788 5.56702 13.4226 5.41074C13.2663 5.25446 13.0543 5.16666 12.8333 5.16666Z" fill="#6368D9"/>
</svg>
