<svg width="20" height="20" viewBox="0 0 20 20" fill="none" xmlns="http://www.w3.org/2000/svg">
<path d="M10.6464 3.3125H9.3131V10.7338L14.1303 13.0233L14.7027 11.819L10.6464 9.89121V3.3125Z" fill="#D1D0F9"/>
<path d="M10 0C4.47717 0 0 4.47717 0 10C0 15.5228 4.47717 20 10 20C15.5228 20 20 15.5228 20 10C20 4.47717 15.5228 0 10 0ZM10 18.6667C5.21354 18.6667 1.33333 14.7865 1.33333 10C1.33333 5.21354 5.21354 1.33333 10 1.33333C14.7865 1.33333 18.6667 5.21354 18.6667 10C18.6667 14.7865 14.7865 18.6667 10 18.6667Z" fill="#D1D0F9"/>
</svg>
