<svg width="21" height="18" viewBox="0 0 21 18" fill="none" xmlns="http://www.w3.org/2000/svg">
<path d="M1.2856 10.2848H16.5328L11.8661 15.89C11.758 16.02 11.6766 16.17 11.6266 16.3315C11.5765 16.4929 11.5587 16.6626 11.5742 16.831C11.6056 17.1709 11.7707 17.4845 12.0332 17.7027C12.2957 17.9209 12.6342 18.0259 12.9742 17.9946C13.3141 17.9632 13.6277 17.7981 13.8459 17.5356L20.2739 9.82198C20.3171 9.76063 20.3558 9.69617 20.3896 9.62914C20.3896 9.56486 20.4539 9.52629 20.4796 9.46201C20.5379 9.31461 20.5684 9.1577 20.5696 8.9992C20.5684 8.8407 20.5379 8.68379 20.4796 8.53638C20.4796 8.4721 20.4153 8.43353 20.3896 8.36925C20.3558 8.30222 20.3171 8.23777 20.2739 8.17641L13.8459 0.462818C13.725 0.317696 13.5737 0.20099 13.4026 0.120998C13.2315 0.0410068 13.0449 -0.000304265 12.856 2.45595e-06C12.5556 -0.000584437 12.2645 0.104032 12.0332 0.29569C11.903 0.403615 11.7954 0.536161 11.7165 0.685737C11.6377 0.835313 11.5891 0.99898 11.5736 1.16736C11.558 1.33575 11.5759 1.50554 11.6261 1.66701C11.6763 1.82849 11.7578 1.97848 11.8661 2.10838L16.5328 7.7136H1.2856C0.944637 7.7136 0.61764 7.84904 0.376544 8.09014C0.135447 8.33124 0 8.65823 0 8.9992C0 9.34016 0.135447 9.66716 0.376544 9.90825C0.61764 10.1493 0.944637 10.2848 1.2856 10.2848Z" fill="#EFEBFB"/>
</svg>
