<svg width="22" height="24" viewBox="0 0 22 24" fill="none" xmlns="http://www.w3.org/2000/svg">
<path d="M21.12 16.9591L18.7805 12.6399V8.14286C18.7805 3.65287 15.1276 0 10.6377 0C6.14768 0 2.4948 3.65287 2.4948 8.14286V12.6399L0.155231 16.959C0.0491339 17.1548 -0.00426533 17.3749 0.000266163 17.5976C0.00479765 17.8203 0.0671043 18.038 0.181081 18.2293C0.295058 18.4207 0.456794 18.5792 0.650444 18.6892C0.844093 18.7993 1.06301 18.8571 1.28575 18.8571H5.94298C5.93023 18.9984 5.92332 19.1411 5.92332 19.2857C5.92332 20.536 6.42 21.7351 7.3041 22.6192C8.1882 23.5033 9.3873 24 10.6376 24C11.8879 24 13.087 23.5033 13.9711 22.6192C14.8552 21.7351 15.3519 20.536 15.3519 19.2857C15.3519 19.1411 15.345 18.9984 15.3322 18.8571H19.9895C20.2122 18.8571 20.4311 18.7992 20.6247 18.6892C20.8183 18.5791 20.98 18.4206 21.094 18.2293C21.2079 18.0379 21.2702 17.8203 21.2748 17.5976C21.2793 17.3749 21.2259 17.1549 21.1198 16.9591H21.12ZM13.6377 19.2857C13.638 19.698 13.5534 20.1059 13.389 20.484C13.2247 20.8621 12.9842 21.2023 12.6825 21.4833C12.3808 21.7643 12.0245 21.9801 11.6357 22.1173C11.2469 22.2544 10.834 22.31 10.4228 22.2805C10.0116 22.2509 9.61088 22.137 9.24568 21.9457C8.88047 21.7544 8.55861 21.4899 8.30018 21.1686C8.04176 20.8474 7.85232 20.4764 7.74369 20.0787C7.63505 19.681 7.60955 19.2651 7.66879 18.8571H13.6065C13.6271 18.9991 13.6375 19.1423 13.6377 19.2857ZM2.00527 17.1429L4.20909 13.0744V8.14286C4.20909 6.43789 4.88638 4.80276 6.09197 3.59717C7.29757 2.39158 8.9327 1.71429 10.6377 1.71429C12.3426 1.71429 13.9778 2.39158 15.1833 3.59717C16.3889 4.80276 17.0662 6.43789 17.0662 8.14286V13.0744L19.2699 17.1429H2.00527Z" fill="#D1D0F9"/>
</svg>
