<svg width="24" height="24" viewBox="0 0 24 24" fill="none" xmlns="http://www.w3.org/2000/svg">
<path d="M19.7143 0C21.9865 0 23.8458 1.76835 23.9909 4.00393L24 4.28571V19.7143C24 21.9865 22.2316 23.8458 19.9961 23.9909L19.7143 24H4.28571C2.01346 24 0.15422 22.2316 0.00911604 19.9961L0 19.7143V4.28571C0 2.01346 1.76835 0.15422 4.00393 0.00911604L4.28571 0H19.7143ZM22.2857 6.85714H1.71429V19.7143C1.71429 21.0509 2.73409 22.1493 4.03807 22.2739L4.28571 22.2857H19.7143C21.0509 22.2857 22.1493 21.2659 22.2739 19.9619L22.2857 19.7143V6.85714ZM6.85714 15.4286C7.80391 15.4286 8.57143 16.1961 8.57143 17.1429C8.57143 18.0897 7.80391 18.8571 6.85714 18.8571C5.91038 18.8571 5.14286 18.0897 5.14286 17.1429C5.14286 16.1961 5.91038 15.4286 6.85714 15.4286ZM12 15.4286C12.9468 15.4286 13.7143 16.1961 13.7143 17.1429C13.7143 18.0897 12.9468 18.8571 12 18.8571C11.0532 18.8571 10.2857 18.0897 10.2857 17.1429C10.2857 16.1961 11.0532 15.4286 12 15.4286ZM6.85714 10.2857C7.80391 10.2857 8.57143 11.0532 8.57143 12C8.57143 12.9468 7.80391 13.7143 6.85714 13.7143C5.91038 13.7143 5.14286 12.9468 5.14286 12C5.14286 11.0532 5.91038 10.2857 6.85714 10.2857ZM12 10.2857C12.9468 10.2857 13.7143 11.0532 13.7143 12C13.7143 12.9468 12.9468 13.7143 12 13.7143C11.0532 13.7143 10.2857 12.9468 10.2857 12C10.2857 11.0532 11.0532 10.2857 12 10.2857ZM17.1429 10.2857C18.0897 10.2857 18.8571 11.0532 18.8571 12C18.8571 12.9468 18.0897 13.7143 17.1429 13.7143C16.1961 13.7143 15.4286 12.9468 15.4286 12C15.4286 11.0532 16.1961 10.2857 17.1429 10.2857ZM19.7143 1.71429H4.28571C2.94909 1.71429 1.85066 2.73409 1.72606 4.03807L1.71429 4.28571V5.14286H22.2857V4.28571C22.2857 2.94909 21.2659 1.85066 19.9619 1.72606L19.7143 1.71429Z" fill="#6368D9"/>
</svg>
