<svg width="24" height="24" viewBox="0 0 24 24" fill="none" xmlns="http://www.w3.org/2000/svg">
<path d="M12.1345 13.7079C12.1122 13.7079 12.0787 13.7079 12.0564 13.7079C12.0229 13.7079 11.9782 13.7079 11.9447 13.7079C9.41074 13.6298 7.51306 11.654 7.51306 9.22047C7.51306 6.74233 9.53353 4.72186 12.0117 4.72186C14.4898 4.72186 16.5103 6.74233 16.5103 9.22047C16.4991 11.6651 14.5903 13.6298 12.168 13.7079C12.1457 13.7079 12.1457 13.7079 12.1345 13.7079ZM12.0005 6.38512C10.4377 6.38512 9.17632 7.65768 9.17632 9.2093C9.17632 10.7386 10.3708 11.9777 11.8889 12.0335C11.9224 12.0223 12.034 12.0223 12.1457 12.0335C13.6415 11.9554 14.8136 10.7275 14.8247 9.2093C14.8247 7.65768 13.5633 6.38512 12.0005 6.38512Z" fill="#6368D9"/>
<path d="M12.0009 24.0001C8.99808 24.0001 6.12925 22.8838 3.90785 20.8522C3.70692 20.6736 3.61762 20.4057 3.63995 20.1489C3.78506 18.8206 4.61111 17.5815 5.98413 16.6662C9.31064 14.4559 14.7023 14.4559 18.0176 16.6662C19.3906 17.5927 20.2167 18.8206 20.3618 20.1489C20.3953 20.4169 20.2948 20.6736 20.0939 20.8522C17.8725 22.8838 15.0037 24.0001 12.0009 24.0001ZM5.3925 19.9257C7.24553 21.4773 9.57855 22.3257 12.0009 22.3257C14.4232 22.3257 16.7562 21.4773 18.6092 19.9257C18.4083 19.2448 17.8725 18.5862 17.0799 18.0503C14.3339 16.2196 9.67902 16.2196 6.91064 18.0503C6.11809 18.5862 5.59343 19.2448 5.3925 19.9257Z" fill="#6368D9"/>
<path d="M12 24C5.38047 24 0 18.6195 0 12C0 5.38047 5.38047 0 12 0C18.6195 0 24 5.38047 24 12C24 18.6195 18.6195 24 12 24ZM12 1.67442C6.30698 1.67442 1.67442 6.30698 1.67442 12C1.67442 17.693 6.30698 22.3256 12 22.3256C17.693 22.3256 22.3256 17.693 22.3256 12C22.3256 6.30698 17.693 1.67442 12 1.67442Z" fill="#6368D9"/>
</svg>
