<svg width="48" height="52" viewBox="0 0 48 52" fill="none" xmlns="http://www.w3.org/2000/svg">
<g filter="url(#filter0_d_3_127)">
<path d="M24 4C20.0444 4 16.1776 5.17298 12.8886 7.37061C9.59962 9.56824 7.03617 12.6918 5.52242 16.3463C4.00867 20.0009 3.6126 24.0222 4.3843 27.9018C5.15601 31.7814 7.06082 35.3451 9.85787 38.1421C12.6549 40.9392 16.2186 42.844 20.0982 43.6157C23.9778 44.3874 27.9992 43.9913 31.6537 42.4776C35.3082 40.9638 38.4318 38.4004 40.6294 35.1114C42.827 31.8224 44 27.9556 44 24C44 21.3736 43.4827 18.7728 42.4776 16.3463C41.4725 13.9198 39.9993 11.715 38.1421 9.85786C36.285 8.00069 34.0802 6.5275 31.6537 5.52241C29.2272 4.51732 26.6264 4 24 4ZM30 26H26V30C26 30.5304 25.7893 31.0391 25.4142 31.4142C25.0391 31.7893 24.5304 32 24 32C23.4696 32 22.9609 31.7893 22.5858 31.4142C22.2107 31.0391 22 30.5304 22 30V26H18C17.4696 26 16.9609 25.7893 16.5858 25.4142C16.2107 25.0391 16 24.5304 16 24C16 23.4696 16.2107 22.9609 16.5858 22.5858C16.9609 22.2107 17.4696 22 18 22H22V18C22 17.4696 22.2107 16.9609 22.5858 16.5858C22.9609 16.2107 23.4696 16 24 16C24.5304 16 25.0391 16.2107 25.4142 16.5858C25.7893 16.9609 26 17.4696 26 18V22H30C30.5304 22 31.0391 22.2107 31.4142 22.5858C31.7893 22.9609 32 23.4696 32 24C32 24.5304 31.7893 25.0391 31.4142 25.4142C31.0391 25.7893 30.5304 26 30 26Z" fill="#6368D9"/>
</g>
<defs>
<filter id="filter0_d_3_127" x="0" y="4" width="48" height="48" filterUnits="userSpaceOnUse" color-interpolation-filters="sRGB">
<feFlood flood-opacity="0" result="BackgroundImageFix"/>
<feColorMatrix in="SourceAlpha" type="matrix" values="0 0 0 0 0 0 0 0 0 0 0 0 0 0 0 0 0 0 127 0" result="hardAlpha"/>
<feOffset dy="4"/>
<feGaussianBlur stdDeviation="2"/>
<feComposite in2="hardAlpha" operator="out"/>
<feColorMatrix type="matrix" values="0 0 0 0 0 0 0 0 0 0 0 0 0 0 0 0 0 0 0.25 0"/>
<feBlend mode="normal" in2="BackgroundImageFix" result="effect1_dropShadow_3_127"/>
<feBlend mode="normal" in="SourceGraphic" in2="effect1_dropShadow_3_127" result="shape"/>
</filter>
</defs>
</svg>
