<svg width="14" height="14" viewBox="0 0 14 14" fill="none" xmlns="http://www.w3.org/2000/svg">
<path d="M7.45256 2.31876H6.51923V7.51366L9.89127 9.11631L10.2919 8.27334L7.45256 6.92385V2.31876Z" fill="#6368D9"/>
<path d="M7 0C3.13402 0 0 3.13402 0 7C0 10.866 3.13402 14 7 14C10.866 14 14 10.866 14 7C14 3.13402 10.866 0 7 0ZM7 13.0667C3.64948 13.0667 0.933333 10.3505 0.933333 7C0.933333 3.64948 3.64948 0.933333 7 0.933333C10.3505 0.933333 13.0667 3.64948 13.0667 7C13.0667 10.3505 10.3505 13.0667 7 13.0667Z" fill="#6368D9"/>
</svg>
