<svg width="27" height="19" viewBox="0 0 27 19" fill="none" xmlns="http://www.w3.org/2000/svg">
<path d="M8.33333 13.0926H7.66667V13.7593V16.1171C7.5588 16.0807 7.44213 16.0393 7.31807 15.9926C6.608 15.7255 5.6642 15.2881 4.72407 14.608C2.86098 13.2603 1 10.9578 1 7.04627C1 3.707 3.70702 1 7.04627 1H12.2871C15.6263 1 18.3333 3.707 18.3333 7.04627C18.3333 10.3856 15.6263 13.0926 12.2871 13.0926H8.33333Z" stroke="#6368D9" stroke-width="2"/>
<mask id="mask0_9_64" style="mask-type:luminance" maskUnits="userSpaceOnUse" x="12" y="5" width="16" height="14">
<path fill-rule="evenodd" clip-rule="evenodd" d="M12.6562 12.8748C13.4068 14.9357 15.3835 16.4074 17.7039 16.4074H19.6669V19C19.6669 19 27.0003 17.7037 27.0003 11.0371C27.0003 8.07106 24.5959 5.66666 21.6299 5.66666H17.7039C17.679 5.66666 17.6541 5.66686 17.6293 5.66719C17.654 5.90126 17.6667 6.13899 17.6667 6.37959C17.6667 9.49886 15.5393 12.1212 12.6562 12.8748Z" fill="white"/>
</mask>
<g mask="url(#mask0_9_64)">
<path d="M12.6562 12.8748L12.319 11.5848L10.9023 11.9551L11.4033 13.3311L12.6562 12.8748ZM19.6669 16.4074H21.0002V15.0741H19.6669V16.4074ZM19.6669 19H18.3335V20.5897L19.8989 20.313L19.6669 19ZM17.6293 5.66719L17.6111 4.33393L16.15 4.35386L16.3033 5.80706L17.6293 5.66719ZM11.4033 13.3311C12.3395 15.9017 14.8052 17.7407 17.7039 17.7407V15.0741C15.9616 15.0741 14.4739 13.9697 13.909 12.4185L11.4033 13.3311ZM17.7039 17.7407H19.6669V15.0741H17.7039V17.7407ZM18.3335 16.4074V19H21.0002V16.4074H18.3335ZM19.6669 19C19.8989 20.313 19.8995 20.3129 19.9001 20.3127C19.9004 20.3127 19.9011 20.3126 19.9016 20.3125C19.9026 20.3123 19.9036 20.3121 19.9048 20.3119C19.9073 20.3115 19.9102 20.311 19.9134 20.3103C19.9201 20.3091 19.9285 20.3076 19.9386 20.3056C19.9588 20.3017 19.9859 20.2964 20.0195 20.2895C20.0867 20.2755 20.1798 20.2552 20.2952 20.2273C20.5256 20.1716 20.8467 20.0855 21.2285 19.9601C21.9877 19.7109 23.0112 19.2989 24.0453 18.646C26.1341 17.3273 28.3335 14.9644 28.3335 11.0371H25.6669C25.6669 13.7763 24.1996 15.3949 22.6217 16.3911C21.8225 16.8956 21.0127 17.2243 20.3968 17.4265C20.0911 17.5268 19.8394 17.594 19.6687 17.6353C19.5836 17.6559 19.5191 17.6699 19.4789 17.6782C19.4587 17.6823 19.4447 17.6851 19.4372 17.6865C19.4335 17.6873 19.4313 17.6876 19.4309 17.6877C19.4307 17.6877 19.4309 17.6877 19.4315 17.6876C19.4319 17.6875 19.4323 17.6875 19.4328 17.6873C19.4331 17.6873 19.4335 17.6872 19.4337 17.6872C19.4342 17.6871 19.4347 17.687 19.6669 19ZM28.3335 11.0371C28.3335 7.33466 25.3322 4.33333 21.6298 4.33333V6.99999C23.8594 6.99999 25.6669 8.80746 25.6669 11.0371H28.3335ZM21.6298 4.33333H17.7039V6.99999H21.6298V4.33333ZM17.7039 4.33333C17.6729 4.33333 17.642 4.33353 17.6111 4.33393L17.6474 7.0004C17.6662 7.00013 17.685 6.99999 17.7039 6.99999V4.33333ZM16.3033 5.80706C16.3231 5.99479 16.3333 6.1858 16.3333 6.3796H18.9999C18.9999 6.0922 18.9848 5.80779 18.9552 5.52726L16.3033 5.80706ZM16.3333 6.3796C16.3333 8.87746 14.6297 10.9808 12.319 11.5848L12.9934 14.1648C16.4487 13.2616 18.9999 10.1202 18.9999 6.3796H16.3333Z" fill="#6368D9"/>
</g>
</svg>
