<svg width="23" height="20" viewBox="0 0 23 20" fill="none" xmlns="http://www.w3.org/2000/svg">
<path d="M22.9368 7.51518C22.9373 7.20383 22.8553 6.89791 22.6992 6.62852C22.5431 6.35914 22.3185 6.13589 22.0481 5.98148L12.3873 0.248042C12.1089 0.0855976 11.7923 0 11.4699 0C11.1476 0 10.831 0.0855976 10.5526 0.248042L0.877406 5.98148C0.610044 6.14013 0.388562 6.36561 0.234727 6.63576C0.0808925 6.90592 0 7.21146 0 7.52234C0 7.83323 0.0808925 8.13877 0.234727 8.40893C0.388562 8.67908 0.610044 8.90456 0.877406 9.06321L3.62946 10.6686V14.6963C3.63111 15.0111 3.71373 15.3202 3.86937 15.5938C4.02501 15.8674 4.24842 16.0964 4.51814 16.2587L10.6099 19.7704C10.8819 19.921 11.1877 20 11.4986 20C11.8095 20 12.1153 19.921 12.3873 19.7704L18.4791 16.2587C18.7488 16.0964 18.9722 15.8674 19.1278 15.5938C19.2835 15.3202 19.3661 15.0111 19.3678 14.6963V10.6256L21.1451 9.57922V13.478H22.9368V7.51518ZM17.5904 14.682L11.4699 18.208L5.42116 14.6963V11.7293L10.5526 14.7823C10.832 14.942 11.1482 15.0259 11.4699 15.0259C11.7917 15.0259 12.1079 14.942 12.3873 14.7823L17.576 11.6863L17.5904 14.682ZM11.4699 13.2343L1.79476 7.50084L11.4699 1.75307L21.1451 7.48651L11.4699 13.2343Z" fill="#6368D9"/>
</svg>
