<svg width="25" height="24" viewBox="0 0 25 24" fill="none" xmlns="http://www.w3.org/2000/svg">
<path d="M4.3078 9.88409V21.2307C4.3078 21.4347 4.38885 21.6304 4.53311 21.7747C4.67738 21.9189 4.87304 22 5.07706 22H9.69264V15.4613C9.69264 15.1552 9.81421 14.8617 10.0306 14.6453C10.247 14.4289 10.5405 14.3074 10.8465 14.3074H14.6929C14.9989 14.3074 15.2924 14.4289 15.5088 14.6453C15.7252 14.8617 15.8467 15.1552 15.8467 15.4613V22H20.4623C20.6663 22 20.862 21.9189 21.0063 21.7747C21.1505 21.6304 21.2316 21.4347 21.2316 21.2307V9.88409" stroke="#6368D9" stroke-width="2.5" stroke-linecap="round" stroke-linejoin="round"/>
<path d="M23.5394 11.9996L13.2933 2.19148C13.0529 1.93762 12.4908 1.93473 12.2461 2.19148L2 11.9996" stroke="#6368D9" stroke-width="2.5" stroke-linecap="round" stroke-linejoin="round"/>
<path d="M19.693 8.2975V2.76842H17.3853V6.08586" stroke="#6368D9" stroke-width="2.5" stroke-linecap="round" stroke-linejoin="round"/>
</svg>
